<mxfile host="app.diagrams.net" agent="Mozilla/5.0 (Macintosh; Intel Mac OS X 10_15_7) AppleWebKit/537.36 (KHTML, like Gecko) Chrome/130.0.0.0 Safari/537.36" version="24.8.2">
  <diagram name="Page-1" id="dYHOMN61vGZkid-R_4IK">
    <mxGraphModel dx="2074" dy="1145" grid="1" gridSize="10" guides="1" tooltips="1" connect="1" arrows="1" fold="1" page="1" pageScale="1" pageWidth="850" pageHeight="1100" math="0" shadow="0">
      <root>
        <mxCell id="0" />
        <mxCell id="1" parent="0" />
        <mxCell id="4GyzDUsILqtI-8Dr9UVN-1" value="" style="rounded=1;whiteSpace=wrap;html=1;" vertex="1" parent="1">
          <mxGeometry x="400" y="330" width="670" height="530" as="geometry" />
        </mxCell>
        <mxCell id="4GyzDUsILqtI-8Dr9UVN-7" style="edgeStyle=orthogonalEdgeStyle;rounded=0;orthogonalLoop=1;jettySize=auto;html=1;exitX=0.75;exitY=1;exitDx=0;exitDy=0;entryX=0.75;entryY=0;entryDx=0;entryDy=0;" edge="1" parent="1" source="4GyzDUsILqtI-8Dr9UVN-2" target="4GyzDUsILqtI-8Dr9UVN-3">
          <mxGeometry relative="1" as="geometry" />
        </mxCell>
        <mxCell id="4GyzDUsILqtI-8Dr9UVN-2" value="Aristotle" style="rounded=1;whiteSpace=wrap;html=1;" vertex="1" parent="1">
          <mxGeometry x="440" y="370" width="230" height="110" as="geometry" />
        </mxCell>
        <mxCell id="4GyzDUsILqtI-8Dr9UVN-6" style="edgeStyle=orthogonalEdgeStyle;rounded=0;orthogonalLoop=1;jettySize=auto;html=1;exitX=0.25;exitY=0;exitDx=0;exitDy=0;entryX=0.25;entryY=1;entryDx=0;entryDy=0;" edge="1" parent="1" source="4GyzDUsILqtI-8Dr9UVN-3" target="4GyzDUsILqtI-8Dr9UVN-2">
          <mxGeometry relative="1" as="geometry" />
        </mxCell>
        <mxCell id="4GyzDUsILqtI-8Dr9UVN-3" value="Redis" style="rounded=1;whiteSpace=wrap;html=1;" vertex="1" parent="1">
          <mxGeometry x="490" y="540" width="130" height="110" as="geometry" />
        </mxCell>
        <mxCell id="4GyzDUsILqtI-8Dr9UVN-17" style="edgeStyle=orthogonalEdgeStyle;rounded=0;orthogonalLoop=1;jettySize=auto;html=1;exitX=0;exitY=0.5;exitDx=0;exitDy=0;exitPerimeter=0;" edge="1" parent="1" source="4GyzDUsILqtI-8Dr9UVN-4" target="4GyzDUsILqtI-8Dr9UVN-10">
          <mxGeometry relative="1" as="geometry" />
        </mxCell>
        <mxCell id="4GyzDUsILqtI-8Dr9UVN-4" value="DB" style="shape=cylinder3;whiteSpace=wrap;html=1;boundedLbl=1;backgroundOutline=1;size=15;" vertex="1" parent="1">
          <mxGeometry x="850" y="695" width="60" height="80" as="geometry" />
        </mxCell>
        <mxCell id="4GyzDUsILqtI-8Dr9UVN-9" value="Docker Compose" style="text;html=1;align=center;verticalAlign=middle;whiteSpace=wrap;rounded=0;" vertex="1" parent="1">
          <mxGeometry x="920" y="360" width="140" height="30" as="geometry" />
        </mxCell>
        <mxCell id="4GyzDUsILqtI-8Dr9UVN-16" style="edgeStyle=orthogonalEdgeStyle;rounded=0;orthogonalLoop=1;jettySize=auto;html=1;exitX=0;exitY=0.5;exitDx=0;exitDy=0;entryX=0.5;entryY=1;entryDx=0;entryDy=0;" edge="1" parent="1" source="4GyzDUsILqtI-8Dr9UVN-10" target="4GyzDUsILqtI-8Dr9UVN-3">
          <mxGeometry relative="1" as="geometry" />
        </mxCell>
        <mxCell id="4GyzDUsILqtI-8Dr9UVN-10" value="&amp;lt;Scheduler&amp;gt;" style="rounded=1;whiteSpace=wrap;html=1;" vertex="1" parent="1">
          <mxGeometry x="590" y="680" width="130" height="110" as="geometry" />
        </mxCell>
        <mxCell id="4GyzDUsILqtI-8Dr9UVN-19" style="edgeStyle=orthogonalEdgeStyle;rounded=0;orthogonalLoop=1;jettySize=auto;html=1;exitX=0.5;exitY=0;exitDx=0;exitDy=0;entryX=0.25;entryY=1;entryDx=0;entryDy=0;" edge="1" parent="1" source="4GyzDUsILqtI-8Dr9UVN-11" target="4GyzDUsILqtI-8Dr9UVN-10">
          <mxGeometry relative="1" as="geometry" />
        </mxCell>
        <mxCell id="4GyzDUsILqtI-8Dr9UVN-11" value="Apache Oozie&lt;span style=&quot;color: rgba(0, 0, 0, 0); font-family: monospace; font-size: 0px; text-align: start; text-wrap-mode: nowrap;&quot;&gt;%3CmxGraphModel%3E%3Croot%3E%3CmxCell%20id%3D%220%22%2F%3E%3CmxCell%20id%3D%221%22%20parent%3D%220%22%2F%3E%3CmxCell%20id%3D%222%22%20value%3D%22%26amp%3Blt%3BScheduler%26amp%3Bgt%3B%22%20style%3D%22rounded%3D1%3BwhiteSpace%3Dwrap%3Bhtml%3D1%3B%22%20vertex%3D%221%22%20parent%3D%221%22%3E%3CmxGeometry%20x%3D%22530%22%20y%3D%22690%22%20width%3D%22130%22%20height%3D%22110%22%20as%3D%22geometry%22%2F%3E%3C%2FmxCell%3E%3C%2Froot%3E%3C%2FmxGraphModel%3E&lt;/span&gt;" style="rounded=1;whiteSpace=wrap;html=1;" vertex="1" parent="1">
          <mxGeometry x="440" y="880" width="130" height="110" as="geometry" />
        </mxCell>
        <mxCell id="4GyzDUsILqtI-8Dr9UVN-20" style="edgeStyle=orthogonalEdgeStyle;rounded=0;orthogonalLoop=1;jettySize=auto;html=1;exitX=0.5;exitY=0;exitDx=0;exitDy=0;entryX=0.5;entryY=1;entryDx=0;entryDy=0;" edge="1" parent="1" source="4GyzDUsILqtI-8Dr9UVN-12" target="4GyzDUsILqtI-8Dr9UVN-10">
          <mxGeometry relative="1" as="geometry" />
        </mxCell>
        <mxCell id="4GyzDUsILqtI-8Dr9UVN-12" value="Apache Airflow" style="rounded=1;whiteSpace=wrap;html=1;" vertex="1" parent="1">
          <mxGeometry x="590" y="880" width="130" height="110" as="geometry" />
        </mxCell>
        <mxCell id="4GyzDUsILqtI-8Dr9UVN-14" value="Spring Scheduler" style="rounded=1;whiteSpace=wrap;html=1;" vertex="1" parent="1">
          <mxGeometry x="600" y="400" width="60" height="50" as="geometry" />
        </mxCell>
        <mxCell id="4GyzDUsILqtI-8Dr9UVN-15" style="edgeStyle=orthogonalEdgeStyle;rounded=0;orthogonalLoop=1;jettySize=auto;html=1;exitX=1;exitY=0.5;exitDx=0;exitDy=0;entryX=0.5;entryY=0;entryDx=0;entryDy=0;entryPerimeter=0;" edge="1" parent="1" source="4GyzDUsILqtI-8Dr9UVN-14" target="4GyzDUsILqtI-8Dr9UVN-4">
          <mxGeometry relative="1" as="geometry" />
        </mxCell>
        <mxCell id="4GyzDUsILqtI-8Dr9UVN-22" style="edgeStyle=orthogonalEdgeStyle;rounded=0;orthogonalLoop=1;jettySize=auto;html=1;exitX=0.5;exitY=0;exitDx=0;exitDy=0;entryX=0.75;entryY=1;entryDx=0;entryDy=0;" edge="1" parent="1" source="4GyzDUsILqtI-8Dr9UVN-21" target="4GyzDUsILqtI-8Dr9UVN-10">
          <mxGeometry relative="1" as="geometry" />
        </mxCell>
        <mxCell id="4GyzDUsILqtI-8Dr9UVN-21" value="(Pipeline Plugin)" style="rounded=1;whiteSpace=wrap;html=1;" vertex="1" parent="1">
          <mxGeometry x="740" y="880" width="130" height="110" as="geometry" />
        </mxCell>
      </root>
    </mxGraphModel>
  </diagram>
</mxfile>
